<mxfile host="app.diagrams.net" agent="Mozilla/5.0 (Windows NT 10.0; Win64; x64) AppleWebKit/537.36 (KHTML, like Gecko) Chrome/129.0.0.0 Safari/537.36" version="24.7.17">
  <diagram name="PÃ¡gina-1" id="3Gm0Mp1Ltr9-jTauQkIO">
    <mxGraphModel dx="1918" dy="714" grid="0" gridSize="10" guides="1" tooltips="1" connect="1" arrows="1" fold="1" page="0" pageScale="1" pageWidth="827" pageHeight="1169" math="0" shadow="0">
      <root>
        <mxCell id="0" />
        <mxCell id="1" parent="0" />
        <mxCell id="ifnzIXQM2yjctgiO4LDm-1" style="edgeStyle=orthogonalEdgeStyle;rounded=0;orthogonalLoop=1;jettySize=auto;html=1;exitX=0.5;exitY=1;exitDx=0;exitDy=0;entryX=0.5;entryY=0;entryDx=0;entryDy=0;" edge="1" parent="1" source="ifnzIXQM2yjctgiO4LDm-2" target="ifnzIXQM2yjctgiO4LDm-4">
          <mxGeometry relative="1" as="geometry" />
        </mxCell>
        <mxCell id="ifnzIXQM2yjctgiO4LDm-2" value="" style="ellipse;whiteSpace=wrap;html=1;" vertex="1" parent="1">
          <mxGeometry x="100" y="40" width="100" height="50" as="geometry" />
        </mxCell>
        <mxCell id="ifnzIXQM2yjctgiO4LDm-3" style="edgeStyle=orthogonalEdgeStyle;rounded=0;orthogonalLoop=1;jettySize=auto;html=1;exitX=0.5;exitY=1;exitDx=0;exitDy=0;entryX=0.5;entryY=0;entryDx=0;entryDy=0;" edge="1" parent="1" source="ifnzIXQM2yjctgiO4LDm-4" target="ifnzIXQM2yjctgiO4LDm-5">
          <mxGeometry relative="1" as="geometry" />
        </mxCell>
        <mxCell id="ifnzIXQM2yjctgiO4LDm-4" value="" style="rounded=0;whiteSpace=wrap;html=1;" vertex="1" parent="1">
          <mxGeometry x="90" y="140" width="110" height="50" as="geometry" />
        </mxCell>
        <mxCell id="ifnzIXQM2yjctgiO4LDm-5" value="" style="ellipse;whiteSpace=wrap;html=1;" vertex="1" parent="1">
          <mxGeometry x="90" y="250" width="110" height="70" as="geometry" />
        </mxCell>
        <mxCell id="ifnzIXQM2yjctgiO4LDm-6" style="edgeStyle=orthogonalEdgeStyle;rounded=0;orthogonalLoop=1;jettySize=auto;html=1;exitX=0.5;exitY=1;exitDx=0;exitDy=0;" edge="1" parent="1" source="ifnzIXQM2yjctgiO4LDm-7">
          <mxGeometry relative="1" as="geometry">
            <mxPoint x="375" y="110" as="targetPoint" />
          </mxGeometry>
        </mxCell>
        <mxCell id="ifnzIXQM2yjctgiO4LDm-7" value="" style="ellipse;whiteSpace=wrap;html=1;" vertex="1" parent="1">
          <mxGeometry x="320" y="20" width="110" height="60" as="geometry" />
        </mxCell>
        <mxCell id="ifnzIXQM2yjctgiO4LDm-8" style="edgeStyle=orthogonalEdgeStyle;rounded=0;orthogonalLoop=1;jettySize=auto;html=1;exitX=0.5;exitY=1;exitDx=0;exitDy=0;" edge="1" parent="1" source="ifnzIXQM2yjctgiO4LDm-9">
          <mxGeometry relative="1" as="geometry">
            <mxPoint x="375" y="210" as="targetPoint" />
          </mxGeometry>
        </mxCell>
        <mxCell id="ifnzIXQM2yjctgiO4LDm-9" value="" style="rounded=0;whiteSpace=wrap;html=1;" vertex="1" parent="1">
          <mxGeometry x="315" y="120" width="120" height="60" as="geometry" />
        </mxCell>
        <mxCell id="ifnzIXQM2yjctgiO4LDm-10" value="" style="rhombus;whiteSpace=wrap;html=1;" vertex="1" parent="1">
          <mxGeometry x="320" y="220" width="115" height="80" as="geometry" />
        </mxCell>
        <mxCell id="ifnzIXQM2yjctgiO4LDm-11" value="" style="rounded=0;whiteSpace=wrap;html=1;" vertex="1" parent="1">
          <mxGeometry x="420" y="320" width="120" height="60" as="geometry" />
        </mxCell>
        <mxCell id="ifnzIXQM2yjctgiO4LDm-12" value="" style="ellipse;whiteSpace=wrap;html=1;" vertex="1" parent="1">
          <mxGeometry x="330" y="410" width="112.5" height="70" as="geometry" />
        </mxCell>
        <mxCell id="ifnzIXQM2yjctgiO4LDm-13" value="" style="endArrow=classic;html=1;rounded=0;entryX=0.59;entryY=-0.063;entryDx=0;entryDy=0;entryPerimeter=0;exitX=1;exitY=0.5;exitDx=0;exitDy=0;" edge="1" parent="1" source="ifnzIXQM2yjctgiO4LDm-10" target="ifnzIXQM2yjctgiO4LDm-11">
          <mxGeometry width="50" height="50" relative="1" as="geometry">
            <mxPoint x="390" y="320" as="sourcePoint" />
            <mxPoint x="440" y="270" as="targetPoint" />
            <Array as="points">
              <mxPoint x="491" y="260" />
            </Array>
          </mxGeometry>
        </mxCell>
        <mxCell id="ifnzIXQM2yjctgiO4LDm-14" value="" style="endArrow=classic;html=1;rounded=0;exitX=0.5;exitY=1;exitDx=0;exitDy=0;" edge="1" parent="1" source="ifnzIXQM2yjctgiO4LDm-10">
          <mxGeometry width="50" height="50" relative="1" as="geometry">
            <mxPoint x="390" y="320" as="sourcePoint" />
            <mxPoint x="378" y="400" as="targetPoint" />
          </mxGeometry>
        </mxCell>
        <mxCell id="ifnzIXQM2yjctgiO4LDm-15" value="" style="endArrow=classic;html=1;rounded=0;exitX=0.5;exitY=1;exitDx=0;exitDy=0;entryX=1;entryY=0.5;entryDx=0;entryDy=0;" edge="1" parent="1" source="ifnzIXQM2yjctgiO4LDm-11" target="ifnzIXQM2yjctgiO4LDm-12">
          <mxGeometry width="50" height="50" relative="1" as="geometry">
            <mxPoint x="390" y="320" as="sourcePoint" />
            <mxPoint x="440" y="270" as="targetPoint" />
            <Array as="points">
              <mxPoint x="480" y="450" />
            </Array>
          </mxGeometry>
        </mxCell>
        <mxCell id="ifnzIXQM2yjctgiO4LDm-16" style="edgeStyle=orthogonalEdgeStyle;rounded=0;orthogonalLoop=1;jettySize=auto;html=1;exitX=0.5;exitY=1;exitDx=0;exitDy=0;entryX=0.5;entryY=0;entryDx=0;entryDy=0;" edge="1" parent="1" source="ifnzIXQM2yjctgiO4LDm-17" target="ifnzIXQM2yjctgiO4LDm-19">
          <mxGeometry relative="1" as="geometry" />
        </mxCell>
        <mxCell id="ifnzIXQM2yjctgiO4LDm-17" value="" style="ellipse;whiteSpace=wrap;html=1;" vertex="1" parent="1">
          <mxGeometry x="85" y="510" width="120" height="80" as="geometry" />
        </mxCell>
        <mxCell id="ifnzIXQM2yjctgiO4LDm-18" style="edgeStyle=orthogonalEdgeStyle;rounded=0;orthogonalLoop=1;jettySize=auto;html=1;exitX=0.5;exitY=1;exitDx=0;exitDy=0;entryX=0.5;entryY=0;entryDx=0;entryDy=0;" edge="1" parent="1" source="ifnzIXQM2yjctgiO4LDm-19" target="ifnzIXQM2yjctgiO4LDm-21">
          <mxGeometry relative="1" as="geometry" />
        </mxCell>
        <mxCell id="ifnzIXQM2yjctgiO4LDm-19" value="" style="rounded=0;whiteSpace=wrap;html=1;" vertex="1" parent="1">
          <mxGeometry x="85" y="630" width="120" height="60" as="geometry" />
        </mxCell>
        <mxCell id="ifnzIXQM2yjctgiO4LDm-20" style="edgeStyle=orthogonalEdgeStyle;rounded=0;orthogonalLoop=1;jettySize=auto;html=1;exitX=0;exitY=0.5;exitDx=0;exitDy=0;entryX=0.5;entryY=0;entryDx=0;entryDy=0;" edge="1" parent="1" source="ifnzIXQM2yjctgiO4LDm-21" target="ifnzIXQM2yjctgiO4LDm-25">
          <mxGeometry relative="1" as="geometry" />
        </mxCell>
        <mxCell id="ifnzIXQM2yjctgiO4LDm-21" value="" style="rhombus;whiteSpace=wrap;html=1;" vertex="1" parent="1">
          <mxGeometry x="95" y="720" width="110" height="80" as="geometry" />
        </mxCell>
        <mxCell id="ifnzIXQM2yjctgiO4LDm-22" style="edgeStyle=orthogonalEdgeStyle;rounded=0;orthogonalLoop=1;jettySize=auto;html=1;exitX=0.5;exitY=1;exitDx=0;exitDy=0;" edge="1" parent="1" source="ifnzIXQM2yjctgiO4LDm-23">
          <mxGeometry relative="1" as="geometry">
            <mxPoint x="130" y="950" as="targetPoint" />
          </mxGeometry>
        </mxCell>
        <mxCell id="ifnzIXQM2yjctgiO4LDm-23" value="" style="rounded=0;whiteSpace=wrap;html=1;" vertex="1" parent="1">
          <mxGeometry x="210" y="820" width="120" height="60" as="geometry" />
        </mxCell>
        <mxCell id="ifnzIXQM2yjctgiO4LDm-24" style="edgeStyle=orthogonalEdgeStyle;rounded=0;orthogonalLoop=1;jettySize=auto;html=1;exitX=0.5;exitY=1;exitDx=0;exitDy=0;entryX=0.5;entryY=0;entryDx=0;entryDy=0;" edge="1" parent="1" source="ifnzIXQM2yjctgiO4LDm-25" target="ifnzIXQM2yjctgiO4LDm-26">
          <mxGeometry relative="1" as="geometry" />
        </mxCell>
        <mxCell id="ifnzIXQM2yjctgiO4LDm-25" value="" style="rounded=0;whiteSpace=wrap;html=1;" vertex="1" parent="1">
          <mxGeometry x="-25" y="820" width="120" height="60" as="geometry" />
        </mxCell>
        <mxCell id="ifnzIXQM2yjctgiO4LDm-26" value="" style="ellipse;whiteSpace=wrap;html=1;" vertex="1" parent="1">
          <mxGeometry x="70" y="960" width="120" height="80" as="geometry" />
        </mxCell>
        <mxCell id="ifnzIXQM2yjctgiO4LDm-27" style="edgeStyle=orthogonalEdgeStyle;rounded=0;orthogonalLoop=1;jettySize=auto;html=1;exitX=0.5;exitY=1;exitDx=0;exitDy=0;entryX=0.5;entryY=0;entryDx=0;entryDy=0;" edge="1" parent="1" source="ifnzIXQM2yjctgiO4LDm-28" target="ifnzIXQM2yjctgiO4LDm-33">
          <mxGeometry relative="1" as="geometry" />
        </mxCell>
        <mxCell id="ifnzIXQM2yjctgiO4LDm-28" value="" style="ellipse;whiteSpace=wrap;html=1;" vertex="1" parent="1">
          <mxGeometry x="480" y="510" width="120" height="80" as="geometry" />
        </mxCell>
        <mxCell id="ifnzIXQM2yjctgiO4LDm-29" style="edgeStyle=orthogonalEdgeStyle;rounded=0;orthogonalLoop=1;jettySize=auto;html=1;exitX=0.5;exitY=0;exitDx=0;exitDy=0;" edge="1" parent="1" source="ifnzIXQM2yjctgiO4LDm-31">
          <mxGeometry relative="1" as="geometry">
            <mxPoint x="490" y="950" as="targetPoint" />
          </mxGeometry>
        </mxCell>
        <mxCell id="ifnzIXQM2yjctgiO4LDm-30" style="edgeStyle=orthogonalEdgeStyle;rounded=0;orthogonalLoop=1;jettySize=auto;html=1;exitX=0.5;exitY=0;exitDx=0;exitDy=0;" edge="1" parent="1" source="ifnzIXQM2yjctgiO4LDm-31" target="ifnzIXQM2yjctgiO4LDm-41">
          <mxGeometry relative="1" as="geometry" />
        </mxCell>
        <mxCell id="ifnzIXQM2yjctgiO4LDm-31" value="" style="ellipse;whiteSpace=wrap;html=1;" vertex="1" parent="1">
          <mxGeometry x="620" y="990" width="120" height="80" as="geometry" />
        </mxCell>
        <mxCell id="ifnzIXQM2yjctgiO4LDm-32" style="edgeStyle=orthogonalEdgeStyle;rounded=0;orthogonalLoop=1;jettySize=auto;html=1;exitX=0.5;exitY=1;exitDx=0;exitDy=0;entryX=0.5;entryY=0;entryDx=0;entryDy=0;" edge="1" parent="1" source="ifnzIXQM2yjctgiO4LDm-33" target="ifnzIXQM2yjctgiO4LDm-38">
          <mxGeometry relative="1" as="geometry" />
        </mxCell>
        <mxCell id="ifnzIXQM2yjctgiO4LDm-33" value="" style="rounded=0;whiteSpace=wrap;html=1;" vertex="1" parent="1">
          <mxGeometry x="490" y="620" width="120" height="60" as="geometry" />
        </mxCell>
        <mxCell id="ifnzIXQM2yjctgiO4LDm-34" style="edgeStyle=orthogonalEdgeStyle;rounded=0;orthogonalLoop=1;jettySize=auto;html=1;exitX=0;exitY=0.5;exitDx=0;exitDy=0;entryX=0.5;entryY=0;entryDx=0;entryDy=0;" edge="1" parent="1" source="ifnzIXQM2yjctgiO4LDm-35" target="ifnzIXQM2yjctgiO4LDm-40">
          <mxGeometry relative="1" as="geometry" />
        </mxCell>
        <mxCell id="ifnzIXQM2yjctgiO4LDm-35" value="" style="rhombus;whiteSpace=wrap;html=1;" vertex="1" parent="1">
          <mxGeometry x="620" y="800" width="120" height="80" as="geometry" />
        </mxCell>
        <mxCell id="ifnzIXQM2yjctgiO4LDm-36" style="edgeStyle=orthogonalEdgeStyle;rounded=0;orthogonalLoop=1;jettySize=auto;html=1;exitX=0;exitY=0.5;exitDx=0;exitDy=0;entryX=0.5;entryY=0;entryDx=0;entryDy=0;" edge="1" parent="1" source="ifnzIXQM2yjctgiO4LDm-38" target="ifnzIXQM2yjctgiO4LDm-39">
          <mxGeometry relative="1" as="geometry" />
        </mxCell>
        <mxCell id="ifnzIXQM2yjctgiO4LDm-37" style="edgeStyle=orthogonalEdgeStyle;rounded=0;orthogonalLoop=1;jettySize=auto;html=1;exitX=1;exitY=0.5;exitDx=0;exitDy=0;" edge="1" parent="1" source="ifnzIXQM2yjctgiO4LDm-38" target="ifnzIXQM2yjctgiO4LDm-35">
          <mxGeometry relative="1" as="geometry" />
        </mxCell>
        <mxCell id="ifnzIXQM2yjctgiO4LDm-38" value="" style="rhombus;whiteSpace=wrap;html=1;" vertex="1" parent="1">
          <mxGeometry x="500" y="700" width="120" height="80" as="geometry" />
        </mxCell>
        <mxCell id="ifnzIXQM2yjctgiO4LDm-39" value="" style="rounded=0;whiteSpace=wrap;html=1;" vertex="1" parent="1">
          <mxGeometry x="370" y="770" width="120" height="60" as="geometry" />
        </mxCell>
        <mxCell id="ifnzIXQM2yjctgiO4LDm-40" value="" style="rounded=0;whiteSpace=wrap;html=1;" vertex="1" parent="1">
          <mxGeometry x="430" y="880" width="120" height="60" as="geometry" />
        </mxCell>
        <mxCell id="ifnzIXQM2yjctgiO4LDm-41" value="" style="rounded=0;whiteSpace=wrap;html=1;" vertex="1" parent="1">
          <mxGeometry x="760" y="880" width="120" height="60" as="geometry" />
        </mxCell>
        <mxCell id="ifnzIXQM2yjctgiO4LDm-42" style="edgeStyle=orthogonalEdgeStyle;rounded=0;orthogonalLoop=1;jettySize=auto;html=1;exitX=1;exitY=0.5;exitDx=0;exitDy=0;entryX=0.583;entryY=0;entryDx=0;entryDy=0;entryPerimeter=0;" edge="1" parent="1" source="ifnzIXQM2yjctgiO4LDm-21" target="ifnzIXQM2yjctgiO4LDm-23">
          <mxGeometry relative="1" as="geometry" />
        </mxCell>
        <mxCell id="ifnzIXQM2yjctgiO4LDm-43" style="edgeStyle=orthogonalEdgeStyle;rounded=0;orthogonalLoop=1;jettySize=auto;html=1;exitX=1;exitY=0.5;exitDx=0;exitDy=0;entryX=0.598;entryY=-0.01;entryDx=0;entryDy=0;entryPerimeter=0;" edge="1" parent="1" source="ifnzIXQM2yjctgiO4LDm-35" target="ifnzIXQM2yjctgiO4LDm-41">
          <mxGeometry relative="1" as="geometry" />
        </mxCell>
        <mxCell id="ifnzIXQM2yjctgiO4LDm-51" style="edgeStyle=none;curved=1;rounded=0;orthogonalLoop=1;jettySize=auto;html=1;exitX=0.5;exitY=1;exitDx=0;exitDy=0;fontSize=12;startSize=8;endSize=8;" edge="1" parent="1" source="ifnzIXQM2yjctgiO4LDm-44">
          <mxGeometry relative="1" as="geometry">
            <mxPoint x="104.6470588235295" y="1267.4118329216453" as="targetPoint" />
          </mxGeometry>
        </mxCell>
        <mxCell id="ifnzIXQM2yjctgiO4LDm-44" value="" style="ellipse;whiteSpace=wrap;html=1;" vertex="1" parent="1">
          <mxGeometry x="45" y="1155" width="120" height="80" as="geometry" />
        </mxCell>
        <mxCell id="ifnzIXQM2yjctgiO4LDm-52" style="edgeStyle=none;curved=1;rounded=0;orthogonalLoop=1;jettySize=auto;html=1;exitX=0.5;exitY=1;exitDx=0;exitDy=0;entryX=0.5;entryY=0;entryDx=0;entryDy=0;fontSize=12;startSize=8;endSize=8;" edge="1" parent="1" source="ifnzIXQM2yjctgiO4LDm-45" target="ifnzIXQM2yjctgiO4LDm-46">
          <mxGeometry relative="1" as="geometry" />
        </mxCell>
        <mxCell id="ifnzIXQM2yjctgiO4LDm-45" value="" style="rounded=0;whiteSpace=wrap;html=1;" vertex="1" parent="1">
          <mxGeometry x="58" y="1270" width="120" height="60" as="geometry" />
        </mxCell>
        <mxCell id="ifnzIXQM2yjctgiO4LDm-53" style="edgeStyle=none;curved=1;rounded=0;orthogonalLoop=1;jettySize=auto;html=1;exitX=0.5;exitY=1;exitDx=0;exitDy=0;fontSize=12;startSize=8;endSize=8;" edge="1" parent="1" source="ifnzIXQM2yjctgiO4LDm-46">
          <mxGeometry relative="1" as="geometry">
            <mxPoint x="117.58823529411757" y="1469.7647561465992" as="targetPoint" />
          </mxGeometry>
        </mxCell>
        <mxCell id="ifnzIXQM2yjctgiO4LDm-46" value="" style="rhombus;whiteSpace=wrap;html=1;" vertex="1" parent="1">
          <mxGeometry x="58" y="1365" width="120" height="80" as="geometry" />
        </mxCell>
        <mxCell id="ifnzIXQM2yjctgiO4LDm-47" value="" style="shape=document;whiteSpace=wrap;html=1;boundedLbl=1;" vertex="1" parent="1">
          <mxGeometry x="39.5" y="1466" width="157" height="80" as="geometry" />
        </mxCell>
        <mxCell id="ifnzIXQM2yjctgiO4LDm-48" value="" style="rounded=0;whiteSpace=wrap;html=1;" vertex="1" parent="1">
          <mxGeometry x="54" y="1587" width="133" height="65" as="geometry" />
        </mxCell>
        <mxCell id="ifnzIXQM2yjctgiO4LDm-50" value="" style="ellipse;whiteSpace=wrap;html=1;" vertex="1" parent="1">
          <mxGeometry x="50.75" y="1698" width="139.5" height="80" as="geometry" />
        </mxCell>
        <mxCell id="ifnzIXQM2yjctgiO4LDm-54" value="" style="endArrow=classic;html=1;rounded=0;fontSize=12;startSize=8;endSize=8;curved=1;exitX=0.49;exitY=0.918;exitDx=0;exitDy=0;exitPerimeter=0;" edge="1" parent="1" source="ifnzIXQM2yjctgiO4LDm-47">
          <mxGeometry width="50" height="50" relative="1" as="geometry">
            <mxPoint x="207" y="1542" as="sourcePoint" />
            <mxPoint x="116" y="1586" as="targetPoint" />
          </mxGeometry>
        </mxCell>
        <mxCell id="ifnzIXQM2yjctgiO4LDm-60" style="edgeStyle=orthogonalEdgeStyle;rounded=0;orthogonalLoop=1;jettySize=auto;html=1;exitX=1;exitY=0.5;exitDx=0;exitDy=0;entryX=1;entryY=0.5;entryDx=0;entryDy=0;" edge="1" parent="1">
          <mxGeometry relative="1" as="geometry">
            <mxPoint x="184" y="1399" as="sourcePoint" />
            <mxPoint x="196.24999999999818" y="1733" as="targetPoint" />
            <Array as="points">
              <mxPoint x="277" y="1400" />
              <mxPoint x="277" y="1725" />
              <mxPoint x="196" y="1725" />
            </Array>
          </mxGeometry>
        </mxCell>
        <mxCell id="ifnzIXQM2yjctgiO4LDm-61" style="edgeStyle=orthogonalEdgeStyle;rounded=0;orthogonalLoop=1;jettySize=auto;html=1;exitX=0;exitY=0.5;exitDx=0;exitDy=0;entryX=0;entryY=0.5;entryDx=0;entryDy=0;" edge="1" parent="1" source="ifnzIXQM2yjctgiO4LDm-46" target="ifnzIXQM2yjctgiO4LDm-48">
          <mxGeometry relative="1" as="geometry">
            <mxPoint x="-75" y="1466" as="sourcePoint" />
            <mxPoint x="-62.75000000000182" y="1800" as="targetPoint" />
            <Array as="points">
              <mxPoint x="18" y="1405" />
              <mxPoint x="18" y="1627" />
              <mxPoint x="54" y="1627" />
            </Array>
          </mxGeometry>
        </mxCell>
        <mxCell id="ifnzIXQM2yjctgiO4LDm-62" value="&lt;font style=&quot;vertical-align: inherit;&quot;&gt;&lt;font style=&quot;vertical-align: inherit;&quot;&gt;simple&lt;/font&gt;&lt;/font&gt;" style="text;strokeColor=none;fillColor=none;html=1;align=center;verticalAlign=middle;whiteSpace=wrap;rounded=0;fontSize=16;" vertex="1" parent="1">
          <mxGeometry x="120" y="50" width="60" height="30" as="geometry" />
        </mxCell>
        <mxCell id="ifnzIXQM2yjctgiO4LDm-63" value="&lt;font style=&quot;vertical-align: inherit;&quot;&gt;&lt;font style=&quot;vertical-align: inherit;&quot;&gt;if&lt;/font&gt;&lt;/font&gt;" style="text;strokeColor=none;fillColor=none;html=1;align=center;verticalAlign=middle;whiteSpace=wrap;rounded=0;fontSize=16;" vertex="1" parent="1">
          <mxGeometry x="350" y="35" width="60" height="30" as="geometry" />
        </mxCell>
        <mxCell id="ifnzIXQM2yjctgiO4LDm-64" value="&lt;font style=&quot;vertical-align: inherit;&quot;&gt;&lt;font style=&quot;vertical-align: inherit;&quot;&gt;if else&lt;/font&gt;&lt;/font&gt;" style="text;strokeColor=none;fillColor=none;html=1;align=center;verticalAlign=middle;whiteSpace=wrap;rounded=0;fontSize=16;" vertex="1" parent="1">
          <mxGeometry x="112" y="533" width="60" height="30" as="geometry" />
        </mxCell>
        <mxCell id="ifnzIXQM2yjctgiO4LDm-66" value="&lt;font style=&quot;vertical-align: inherit;&quot;&gt;&lt;font style=&quot;vertical-align: inherit;&quot;&gt;do while&lt;/font&gt;&lt;/font&gt;" style="text;strokeColor=none;fillColor=none;html=1;align=center;verticalAlign=middle;whiteSpace=wrap;rounded=0;fontSize=16;" vertex="1" parent="1">
          <mxGeometry x="80" y="1175" width="60" height="30" as="geometry" />
        </mxCell>
        <mxCell id="ifnzIXQM2yjctgiO4LDm-68" value="&lt;font style=&quot;vertical-align: inherit;&quot;&gt;&lt;font style=&quot;vertical-align: inherit;&quot;&gt;do anidado&lt;/font&gt;&lt;/font&gt;" style="text;strokeColor=none;fillColor=none;html=1;align=center;verticalAlign=middle;whiteSpace=wrap;rounded=0;fontSize=16;" vertex="1" parent="1">
          <mxGeometry x="516" y="533" width="60" height="30" as="geometry" />
        </mxCell>
        <mxCell id="ifnzIXQM2yjctgiO4LDm-69" value="" style="ellipse;whiteSpace=wrap;html=1;" vertex="1" parent="1">
          <mxGeometry x="634" y="1113" width="120" height="80" as="geometry" />
        </mxCell>
        <mxCell id="ifnzIXQM2yjctgiO4LDm-80" style="edgeStyle=none;curved=1;rounded=0;orthogonalLoop=1;jettySize=auto;html=1;exitX=0.5;exitY=1;exitDx=0;exitDy=0;entryX=0.5;entryY=0;entryDx=0;entryDy=0;fontSize=12;startSize=8;endSize=8;" edge="1" parent="1" source="ifnzIXQM2yjctgiO4LDm-71" target="ifnzIXQM2yjctgiO4LDm-72">
          <mxGeometry relative="1" as="geometry" />
        </mxCell>
        <mxCell id="ifnzIXQM2yjctgiO4LDm-83" style="edgeStyle=none;curved=1;rounded=0;orthogonalLoop=1;jettySize=auto;html=1;exitX=1;exitY=0.5;exitDx=0;exitDy=0;entryX=0;entryY=0.5;entryDx=0;entryDy=0;fontSize=12;startSize=8;endSize=8;" edge="1" parent="1" source="ifnzIXQM2yjctgiO4LDm-71" target="ifnzIXQM2yjctgiO4LDm-77">
          <mxGeometry relative="1" as="geometry" />
        </mxCell>
        <mxCell id="ifnzIXQM2yjctgiO4LDm-71" value="" style="rhombus;whiteSpace=wrap;html=1;" vertex="1" parent="1">
          <mxGeometry x="636" y="1359" width="124" height="80" as="geometry" />
        </mxCell>
        <mxCell id="ifnzIXQM2yjctgiO4LDm-81" style="edgeStyle=none;curved=1;rounded=0;orthogonalLoop=1;jettySize=auto;html=1;exitX=0.5;exitY=1;exitDx=0;exitDy=0;entryX=0.5;entryY=0;entryDx=0;entryDy=0;fontSize=12;startSize=8;endSize=8;" edge="1" parent="1" source="ifnzIXQM2yjctgiO4LDm-72" target="ifnzIXQM2yjctgiO4LDm-73">
          <mxGeometry relative="1" as="geometry" />
        </mxCell>
        <mxCell id="ifnzIXQM2yjctgiO4LDm-84" style="edgeStyle=none;curved=1;rounded=0;orthogonalLoop=1;jettySize=auto;html=1;exitX=1;exitY=0.5;exitDx=0;exitDy=0;entryX=0;entryY=0.5;entryDx=0;entryDy=0;fontSize=12;startSize=8;endSize=8;" edge="1" parent="1" source="ifnzIXQM2yjctgiO4LDm-72" target="ifnzIXQM2yjctgiO4LDm-76">
          <mxGeometry relative="1" as="geometry" />
        </mxCell>
        <mxCell id="ifnzIXQM2yjctgiO4LDm-72" value="" style="rhombus;whiteSpace=wrap;html=1;" vertex="1" parent="1">
          <mxGeometry x="636" y="1466" width="124" height="80" as="geometry" />
        </mxCell>
        <mxCell id="ifnzIXQM2yjctgiO4LDm-85" style="edgeStyle=none;curved=1;rounded=0;orthogonalLoop=1;jettySize=auto;html=1;exitX=1;exitY=0.5;exitDx=0;exitDy=0;entryX=0;entryY=0.5;entryDx=0;entryDy=0;fontSize=12;startSize=8;endSize=8;" edge="1" parent="1" source="ifnzIXQM2yjctgiO4LDm-73" target="ifnzIXQM2yjctgiO4LDm-75">
          <mxGeometry relative="1" as="geometry" />
        </mxCell>
        <mxCell id="ifnzIXQM2yjctgiO4LDm-73" value="" style="rhombus;whiteSpace=wrap;html=1;" vertex="1" parent="1">
          <mxGeometry x="636" y="1572" width="127" height="80" as="geometry" />
        </mxCell>
        <mxCell id="ifnzIXQM2yjctgiO4LDm-79" style="edgeStyle=none;curved=1;rounded=0;orthogonalLoop=1;jettySize=auto;html=1;exitX=0.5;exitY=1;exitDx=0;exitDy=0;entryX=0.5;entryY=0;entryDx=0;entryDy=0;fontSize=12;startSize=8;endSize=8;" edge="1" parent="1" source="ifnzIXQM2yjctgiO4LDm-74" target="ifnzIXQM2yjctgiO4LDm-71">
          <mxGeometry relative="1" as="geometry" />
        </mxCell>
        <mxCell id="ifnzIXQM2yjctgiO4LDm-74" value="" style="rounded=0;whiteSpace=wrap;html=1;" vertex="1" parent="1">
          <mxGeometry x="643" y="1230" width="120" height="60" as="geometry" />
        </mxCell>
        <mxCell id="ifnzIXQM2yjctgiO4LDm-89" style="edgeStyle=none;curved=1;rounded=0;orthogonalLoop=1;jettySize=auto;html=1;exitX=1;exitY=0.5;exitDx=0;exitDy=0;fontSize=12;startSize=8;endSize=8;" edge="1" parent="1" source="ifnzIXQM2yjctgiO4LDm-75">
          <mxGeometry relative="1" as="geometry">
            <mxPoint x="1132.5384990985576" y="1601.3846153846152" as="targetPoint" />
          </mxGeometry>
        </mxCell>
        <mxCell id="ifnzIXQM2yjctgiO4LDm-75" value="" style="rounded=0;whiteSpace=wrap;html=1;" vertex="1" parent="1">
          <mxGeometry x="932" y="1572" width="120" height="60" as="geometry" />
        </mxCell>
        <mxCell id="ifnzIXQM2yjctgiO4LDm-88" style="edgeStyle=none;curved=1;rounded=0;orthogonalLoop=1;jettySize=auto;html=1;exitX=1;exitY=0.5;exitDx=0;exitDy=0;fontSize=12;startSize=8;endSize=8;" edge="1" parent="1" source="ifnzIXQM2yjctgiO4LDm-76">
          <mxGeometry relative="1" as="geometry">
            <mxPoint x="1133.769343449519" y="1499.8461538461538" as="targetPoint" />
          </mxGeometry>
        </mxCell>
        <mxCell id="ifnzIXQM2yjctgiO4LDm-76" value="" style="rounded=0;whiteSpace=wrap;html=1;" vertex="1" parent="1">
          <mxGeometry x="929" y="1470" width="120" height="60" as="geometry" />
        </mxCell>
        <mxCell id="ifnzIXQM2yjctgiO4LDm-77" value="" style="rounded=0;whiteSpace=wrap;html=1;" vertex="1" parent="1">
          <mxGeometry x="918" y="1369" width="120" height="60" as="geometry" />
        </mxCell>
        <mxCell id="ifnzIXQM2yjctgiO4LDm-78" value="" style="ellipse;whiteSpace=wrap;html=1;" vertex="1" parent="1">
          <mxGeometry x="656" y="1715" width="120" height="80" as="geometry" />
        </mxCell>
        <mxCell id="ifnzIXQM2yjctgiO4LDm-82" style="edgeStyle=none;curved=1;rounded=0;orthogonalLoop=1;jettySize=auto;html=1;exitX=0.5;exitY=1;exitDx=0;exitDy=0;entryX=0.353;entryY=0.057;entryDx=0;entryDy=0;entryPerimeter=0;fontSize=12;startSize=8;endSize=8;" edge="1" parent="1" source="ifnzIXQM2yjctgiO4LDm-73" target="ifnzIXQM2yjctgiO4LDm-78">
          <mxGeometry relative="1" as="geometry" />
        </mxCell>
        <mxCell id="ifnzIXQM2yjctgiO4LDm-87" style="edgeStyle=orthogonalEdgeStyle;rounded=0;orthogonalLoop=1;jettySize=auto;html=1;exitX=1;exitY=0.5;exitDx=0;exitDy=0;entryX=1;entryY=0.5;entryDx=0;entryDy=0;" edge="1" parent="1" target="ifnzIXQM2yjctgiO4LDm-78">
          <mxGeometry relative="1" as="geometry">
            <mxPoint x="1041" y="1385" as="sourcePoint" />
            <mxPoint x="1053.2499999999982" y="1719" as="targetPoint" />
            <Array as="points">
              <mxPoint x="1134" y="1386" />
              <mxPoint x="1134" y="1711" />
              <mxPoint x="787" y="1711" />
              <mxPoint x="787" y="1719" />
            </Array>
          </mxGeometry>
        </mxCell>
        <mxCell id="ifnzIXQM2yjctgiO4LDm-90" style="edgeStyle=none;curved=1;rounded=0;orthogonalLoop=1;jettySize=auto;html=1;exitX=0.5;exitY=1;exitDx=0;exitDy=0;entryX=0.418;entryY=0.021;entryDx=0;entryDy=0;entryPerimeter=0;fontSize=12;startSize=8;endSize=8;" edge="1" parent="1" source="ifnzIXQM2yjctgiO4LDm-69" target="ifnzIXQM2yjctgiO4LDm-74">
          <mxGeometry relative="1" as="geometry" />
        </mxCell>
        <mxCell id="ifnzIXQM2yjctgiO4LDm-91" value="&lt;font style=&quot;vertical-align: inherit;&quot;&gt;&lt;font style=&quot;vertical-align: inherit;&quot;&gt;case&lt;/font&gt;&lt;/font&gt;" style="text;strokeColor=none;fillColor=none;html=1;align=center;verticalAlign=middle;whiteSpace=wrap;rounded=0;fontSize=16;" vertex="1" parent="1">
          <mxGeometry x="664" y="1129" width="60" height="30" as="geometry" />
        </mxCell>
        <mxCell id="ifnzIXQM2yjctgiO4LDm-92" style="edgeStyle=orthogonalEdgeStyle;rounded=0;orthogonalLoop=1;jettySize=auto;html=1;exitX=0.5;exitY=1;exitDx=0;exitDy=0;" edge="1" parent="1" source="ifnzIXQM2yjctgiO4LDm-93">
          <mxGeometry relative="1" as="geometry">
            <mxPoint x="160" y="2019" as="targetPoint" />
          </mxGeometry>
        </mxCell>
        <mxCell id="ifnzIXQM2yjctgiO4LDm-93" value="" style="ellipse;whiteSpace=wrap;html=1;" vertex="1" parent="1">
          <mxGeometry x="105" y="1929" width="110" height="60" as="geometry" />
        </mxCell>
        <mxCell id="ifnzIXQM2yjctgiO4LDm-94" style="edgeStyle=orthogonalEdgeStyle;rounded=0;orthogonalLoop=1;jettySize=auto;html=1;exitX=0.5;exitY=1;exitDx=0;exitDy=0;" edge="1" parent="1" source="ifnzIXQM2yjctgiO4LDm-95">
          <mxGeometry relative="1" as="geometry">
            <mxPoint x="160" y="2119" as="targetPoint" />
          </mxGeometry>
        </mxCell>
        <mxCell id="ifnzIXQM2yjctgiO4LDm-95" value="" style="rounded=0;whiteSpace=wrap;html=1;" vertex="1" parent="1">
          <mxGeometry x="100" y="2029" width="120" height="60" as="geometry" />
        </mxCell>
        <mxCell id="ifnzIXQM2yjctgiO4LDm-96" value="" style="rhombus;whiteSpace=wrap;html=1;" vertex="1" parent="1">
          <mxGeometry x="105" y="2129" width="115" height="80" as="geometry" />
        </mxCell>
        <mxCell id="ifnzIXQM2yjctgiO4LDm-98" value="" style="ellipse;whiteSpace=wrap;html=1;" vertex="1" parent="1">
          <mxGeometry x="115" y="2319" width="112.5" height="70" as="geometry" />
        </mxCell>
        <mxCell id="ifnzIXQM2yjctgiO4LDm-100" value="" style="endArrow=classic;html=1;rounded=0;exitX=0.5;exitY=1;exitDx=0;exitDy=0;" edge="1" parent="1" source="ifnzIXQM2yjctgiO4LDm-96">
          <mxGeometry width="50" height="50" relative="1" as="geometry">
            <mxPoint x="175" y="2229" as="sourcePoint" />
            <mxPoint x="163" y="2309" as="targetPoint" />
          </mxGeometry>
        </mxCell>
        <mxCell id="ifnzIXQM2yjctgiO4LDm-104" style="edgeStyle=orthogonalEdgeStyle;rounded=0;orthogonalLoop=1;jettySize=auto;html=1;exitX=0;exitY=0.5;exitDx=0;exitDy=0;entryX=0;entryY=0.5;entryDx=0;entryDy=0;" edge="1" parent="1" target="ifnzIXQM2yjctgiO4LDm-96">
          <mxGeometry relative="1" as="geometry">
            <mxPoint x="100" y="2049" as="sourcePoint" />
            <mxPoint x="96" y="2264" as="targetPoint" />
            <Array as="points">
              <mxPoint x="-55" y="2049" />
              <mxPoint x="-55" y="2169" />
            </Array>
          </mxGeometry>
        </mxCell>
      </root>
    </mxGraphModel>
  </diagram>
</mxfile>
